<svg width="96" height="24" viewBox="0 0 96 24" fill="none" xmlns="http://www.w3.org/2000/svg">
<path d="M11.9989 7.47887C11.9985 7.46532 11.998 7.45177 11.9969 7.43813C11.9957 7.42444 11.994 7.41094 11.9922 7.39748C11.9912 7.39052 11.9909 7.38361 11.9898 7.37661L11.2398 2.87661C11.2237 2.77941 11.1885 2.68634 11.1364 2.60272C11.0843 2.5191 11.0162 2.44657 10.936 2.38928C10.8559 2.33198 10.7652 2.29105 10.6692 2.26881C10.5732 2.24657 10.4738 2.24346 10.3766 2.25966C10.2794 2.27586 10.1864 2.31105 10.1028 2.36323C10.0192 2.41541 9.9467 2.48354 9.88946 2.56374C9.83222 2.64394 9.79134 2.73463 9.76916 2.83063C9.74699 2.92664 9.74394 3.02607 9.76021 3.12325L10.3646 6.74993H8.625V2.99993C8.625 2.80102 8.54598 2.61025 8.40533 2.4696C8.26468 2.32895 8.07391 2.24993 7.875 2.24993C7.67609 2.24993 7.48532 2.32895 7.34467 2.4696C7.20402 2.61025 7.125 2.80102 7.125 2.99993V6.74993H5.38536L5.98979 3.12325C6.00606 3.02607 6.00301 2.92664 5.98083 2.83063C5.95866 2.73463 5.91778 2.64394 5.86053 2.56374C5.80329 2.48354 5.73081 2.41541 5.64722 2.36323C5.56364 2.31105 5.47059 2.27586 5.3734 2.25966C5.27621 2.24346 5.17678 2.24657 5.08079 2.26881C4.9848 2.29105 4.89413 2.33198 4.81397 2.38928C4.73381 2.44657 4.66572 2.5191 4.6136 2.60272C4.56148 2.68634 4.52635 2.77941 4.51021 2.87661L3.76021 7.37661C3.75906 7.38361 3.75879 7.39052 3.75778 7.39748C3.75595 7.41094 3.75426 7.42444 3.75311 7.43813C3.75197 7.45177 3.75146 7.46532 3.75105 7.47887C3.75087 7.48592 3.75 7.49284 3.75 7.49993C3.75 7.50661 3.75046 7.51316 3.7505 7.5198C3.75064 7.52442 3.75064 7.529 3.75087 7.53358C3.75993 8.49114 4.1014 9.4158 4.71687 10.1494C5.33235 10.883 6.18359 11.38 7.125 11.5553V20.9999C7.125 21.1988 7.20402 21.3896 7.34467 21.5303C7.48532 21.6709 7.67609 21.7499 7.875 21.7499C8.07391 21.7499 8.26468 21.6709 8.40533 21.5303C8.54598 21.3896 8.625 21.1988 8.625 20.9999V11.5553C9.56641 11.38 10.4177 10.883 11.0331 10.1494C11.6486 9.4158 11.9901 8.49113 11.9991 7.53358C11.9994 7.529 11.9994 7.52442 11.9995 7.51979C11.9995 7.51316 12 7.50661 12 7.49993C12 7.49284 11.9991 7.48592 11.9989 7.47887Z" fill="black"/>
<path d="M19.8743 2.98673C19.8741 2.97126 19.8732 2.95578 19.872 2.94026C19.8712 2.92973 19.8702 2.9193 19.8689 2.90891C19.8673 2.89595 19.8653 2.883 19.863 2.87004C19.8607 2.85699 19.8582 2.84409 19.8553 2.83131C19.8529 2.82115 19.8503 2.81104 19.8475 2.80092C19.8433 2.78586 19.8388 2.77103 19.8337 2.75638C19.8323 2.75217 19.8314 2.74791 19.8299 2.7437C19.8282 2.73917 19.826 2.73495 19.8243 2.73047C19.8186 2.71577 19.8125 2.70134 19.806 2.68716C19.8018 2.67791 19.7974 2.66879 19.7928 2.65979C19.7866 2.64771 19.7801 2.63582 19.7733 2.62413C19.7673 2.61365 19.7611 2.60335 19.7546 2.59323C19.7484 2.58371 19.742 2.57446 19.7354 2.56522C19.7274 2.55405 19.7194 2.54311 19.7109 2.53249C19.7046 2.52466 19.6981 2.51711 19.6916 2.50955C19.6823 2.49875 19.6727 2.48808 19.6628 2.47787C19.6558 2.47073 19.6486 2.46387 19.6414 2.457C19.6314 2.44748 19.6213 2.43814 19.6108 2.42921C19.6024 2.42203 19.5937 2.41525 19.5849 2.40843C19.5751 2.40083 19.5653 2.39328 19.5551 2.38614C19.5447 2.37886 19.534 2.37204 19.5233 2.36531C19.5142 2.35959 19.5051 2.35382 19.4957 2.34851C19.4835 2.34155 19.471 2.33514 19.4583 2.32887C19.4497 2.32457 19.4411 2.32027 19.4322 2.31628C19.419 2.31033 19.4055 2.30493 19.3918 2.29971C19.3827 2.29628 19.3737 2.29285 19.3644 2.28973C19.3513 2.28529 19.338 2.2814 19.3246 2.27769C19.3139 2.27472 19.3032 2.27193 19.2924 2.26941C19.2805 2.26671 19.2685 2.26437 19.2564 2.26222C19.2432 2.25984 19.2301 2.25783 19.2168 2.25618C19.2066 2.25494 19.1963 2.25394 19.186 2.25307C19.1706 2.25183 19.1552 2.25105 19.1397 2.25073C19.1347 2.25064 19.13 2.25 19.125 2.25C19.1205 2.25 19.1161 2.2506 19.1116 2.25069C19.0962 2.25096 19.0808 2.25179 19.0654 2.25302C19.0548 2.25385 19.0443 2.2548 19.0339 2.25609C19.0209 2.25769 19.008 2.2597 18.9951 2.26199C18.982 2.26428 18.9691 2.2668 18.9563 2.26978C18.9462 2.27211 18.9361 2.27476 18.9259 2.27756C18.9109 2.28168 18.8961 2.28621 18.8814 2.29129C18.8772 2.29271 18.8729 2.29362 18.8687 2.29513C18.8595 2.29852 18.8504 2.30255 18.8412 2.30598C18.8377 2.3074 18.8341 2.30864 18.8306 2.3101C16.8985 3.03625 15.3511 5.4066 14.2315 9.35806C13.7237 11.1814 13.3552 13.0408 13.1293 14.9201C13.1181 15.0247 13.1291 15.1305 13.1614 15.2306C13.1938 15.3308 13.2469 15.423 13.3172 15.5012C13.3875 15.5795 13.4735 15.6421 13.5696 15.685C13.6657 15.7278 13.7698 15.75 13.875 15.75H18.375V21C18.375 21.1989 18.454 21.3897 18.5947 21.5303C18.7353 21.671 18.9261 21.75 19.125 21.75C19.3239 21.75 19.5147 21.671 19.6554 21.5303C19.796 21.3897 19.875 21.1989 19.875 21V3C19.875 2.99551 19.8744 2.99121 19.8743 2.98673Z" fill="black"/>
<path d="M35.1186 17V6.81818H38.8473C39.5698 6.81818 40.1681 6.9375 40.642 7.17614C41.116 7.41146 41.4706 7.7313 41.706 8.13565C41.9413 8.53669 42.0589 8.98911 42.0589 9.4929C42.0589 9.91714 41.9811 10.2751 41.8253 10.5668C41.6695 10.8551 41.4607 11.0871 41.1989 11.2628C40.9403 11.4351 40.6553 11.5611 40.3438 11.6406V11.7401C40.6818 11.7566 41.0116 11.866 41.3331 12.0682C41.6579 12.267 41.9264 12.5504 42.1385 12.9183C42.3506 13.2862 42.4567 13.7337 42.4567 14.2607C42.4567 14.781 42.334 15.2483 42.0888 15.6626C41.8468 16.0736 41.4723 16.4001 40.9652 16.642C40.4581 16.8807 39.8101 17 39.0213 17H35.1186ZM36.6548 15.6825H38.8722C39.608 15.6825 40.1349 15.54 40.4531 15.255C40.7713 14.9699 40.9304 14.6136 40.9304 14.1861C40.9304 13.8646 40.8492 13.5696 40.6868 13.3011C40.5244 13.0327 40.2924 12.8189 39.9908 12.6598C39.6925 12.5007 39.3378 12.4212 38.9268 12.4212H36.6548V15.6825ZM36.6548 11.223H38.7131C39.0578 11.223 39.3677 11.1567 39.6428 11.0241C39.9212 10.8916 40.1416 10.706 40.304 10.4673C40.4697 10.2254 40.5526 9.94034 40.5526 9.61222C40.5526 9.19129 40.4051 8.8383 40.1101 8.55327C39.8151 8.26823 39.3627 8.12571 38.7528 8.12571H36.6548V11.223ZM43.8794 17V9.36364H45.3162V10.5767H45.3958C45.535 10.1657 45.7803 9.84257 46.1316 9.60724C46.4862 9.36861 46.8873 9.24929 47.3347 9.24929C47.4275 9.24929 47.5369 9.2526 47.6628 9.25923C47.7921 9.26586 47.8932 9.27415 47.9661 9.28409V10.706C47.9064 10.6894 47.8004 10.6712 47.6479 10.6513C47.4955 10.6281 47.343 10.6165 47.1905 10.6165C46.8392 10.6165 46.526 10.6911 46.2509 10.8402C45.9791 10.986 45.7637 11.1899 45.6046 11.4517C45.4455 11.7102 45.366 12.0052 45.366 12.3366V17H43.8794ZM51.9902 17.1541C51.2379 17.1541 50.5899 16.9934 50.0464 16.6719C49.5061 16.3471 49.0885 15.8913 48.7935 15.3047C48.5018 14.7147 48.356 14.0237 48.356 13.2315C48.356 12.4493 48.5018 11.7599 48.7935 11.1634C49.0885 10.5668 49.4995 10.1011 50.0265 9.76633C50.5568 9.43158 51.1766 9.2642 51.8858 9.2642C52.3167 9.2642 52.7343 9.33546 53.1387 9.47798C53.543 9.6205 53.906 9.84422 54.2275 10.1491C54.549 10.4541 54.8025 10.8501 54.9881 11.3374C55.1737 11.8213 55.2665 12.4096 55.2665 13.1023V13.6293H49.1962V12.5156H53.8099C53.8099 12.1245 53.7303 11.7782 53.5712 11.4766C53.4121 11.1716 53.1884 10.9313 52.9 10.7557C52.615 10.58 52.2803 10.4922 51.8958 10.4922C51.4782 10.4922 51.1136 10.5949 50.802 10.8004C50.4938 11.0026 50.2552 11.2678 50.0861 11.5959C49.9204 11.9207 49.8375 12.2737 49.8375 12.6548V13.5249C49.8375 14.0353 49.927 14.4695 50.106 14.8274C50.2883 15.1854 50.5419 15.4588 50.8667 15.6477C51.1915 15.8333 51.571 15.9261 52.0052 15.9261C52.2869 15.9261 52.5438 15.8864 52.7758 15.8068C53.0078 15.724 53.2083 15.6013 53.3773 15.4389C53.5464 15.2765 53.6756 15.076 53.7651 14.8374L55.1721 15.0909C55.0594 15.5052 54.8572 15.8681 54.5655 16.1797C54.2772 16.4879 53.9143 16.7282 53.4768 16.9006C53.0426 17.0696 52.5471 17.1541 51.9902 17.1541ZM58.8582 17.169C58.3743 17.169 57.9368 17.0795 57.5457 16.9006C57.1546 16.7183 56.8447 16.4548 56.616 16.1101C56.3906 15.7654 56.2779 15.3428 56.2779 14.8423C56.2779 14.4115 56.3608 14.0568 56.5265 13.7784C56.6922 13.5 56.9159 13.2796 57.1976 13.1172C57.4794 12.9548 57.7942 12.8321 58.1422 12.7493C58.4903 12.6664 58.8449 12.6035 59.2062 12.5604C59.6636 12.5073 60.0348 12.4643 60.3198 12.4311C60.6048 12.3946 60.812 12.3366 60.9412 12.2571C61.0705 12.1776 61.1351 12.0483 61.1351 11.8693V11.8345C61.1351 11.4003 61.0125 11.0639 60.7672 10.8253C60.5253 10.5866 60.164 10.4673 59.6834 10.4673C59.183 10.4673 58.7886 10.5784 58.5002 10.8004C58.2152 11.0192 58.018 11.2628 57.9086 11.5312L56.5116 11.2131C56.6773 10.7491 56.9192 10.3745 57.2374 10.0895C57.5589 9.80114 57.9285 9.59233 58.3461 9.46307C58.7637 9.33049 59.2029 9.2642 59.6636 9.2642C59.9685 9.2642 60.2916 9.30066 60.633 9.37358C60.9777 9.44318 61.2992 9.57244 61.5975 9.76136C61.8991 9.95028 62.146 10.2204 62.3383 10.5717C62.5305 10.9197 62.6266 11.3722 62.6266 11.929V17H61.1749V15.956H61.1153C61.0191 16.1482 60.875 16.3371 60.6827 16.5227C60.4905 16.7083 60.2436 16.8625 59.942 16.9851C59.6404 17.1077 59.2791 17.169 58.8582 17.169ZM59.1813 15.9759C59.5923 15.9759 59.9436 15.8946 60.2353 15.7322C60.5303 15.5698 60.754 15.3577 60.9064 15.0959C61.0622 14.8307 61.1401 14.5473 61.1401 14.2457V13.2614C61.0871 13.3144 60.9843 13.3641 60.8319 13.4105C60.6827 13.4536 60.512 13.4917 60.3198 13.5249C60.1276 13.5547 59.9403 13.5829 59.758 13.6094C59.5757 13.6326 59.4233 13.6525 59.3006 13.669C59.0123 13.7055 58.7488 13.7668 58.5101 13.853C58.2748 13.9392 58.0859 14.0634 57.9434 14.2259C57.8042 14.3849 57.7346 14.5971 57.7346 14.8622C57.7346 15.2301 57.8705 15.5085 58.1422 15.6974C58.414 15.883 58.7604 15.9759 59.1813 15.9759ZM65.6937 14.4098L65.6838 12.5952H65.9423L68.9849 9.36364H70.7648L67.2946 13.0426H67.0609L65.6937 14.4098ZM64.3266 17V6.81818H65.8131V17H64.3266ZM69.149 17L66.4146 13.3707L67.4388 12.3317L70.9736 17H69.149ZM75.4738 9.36364V10.5568H71.1584V9.36364H75.4738ZM72.3417 17V8.47869C72.3417 8.00142 72.4461 7.60535 72.6549 7.29048C72.8637 6.9723 73.1404 6.73532 73.4851 6.57955C73.8298 6.42045 74.2043 6.34091 74.6087 6.34091C74.907 6.34091 75.1622 6.36577 75.3743 6.41548C75.5864 6.46188 75.7439 6.50497 75.8466 6.54474L75.4986 7.74787C75.429 7.72798 75.3395 7.70478 75.2301 7.67827C75.1208 7.64844 74.9882 7.63352 74.8324 7.63352C74.4712 7.63352 74.2126 7.72301 74.0569 7.90199C73.9044 8.08097 73.8282 8.33949 73.8282 8.67756V17H72.3417ZM78.7174 17.169C78.2335 17.169 77.796 17.0795 77.4049 16.9006C77.0138 16.7183 76.7039 16.4548 76.4752 16.1101C76.2498 15.7654 76.1371 15.3428 76.1371 14.8423C76.1371 14.4115 76.22 14.0568 76.3857 13.7784C76.5514 13.5 76.7751 13.2796 77.0569 13.1172C77.3386 12.9548 77.6535 12.8321 78.0015 12.7493C78.3495 12.6664 78.7041 12.6035 79.0654 12.5604C79.5228 12.5073 79.894 12.4643 80.179 12.4311C80.4641 12.3946 80.6712 12.3366 80.8005 12.2571C80.9297 12.1776 80.9944 12.0483 80.9944 11.8693V11.8345C80.9944 11.4003 80.8717 11.0639 80.6265 10.8253C80.3845 10.5866 80.0232 10.4673 79.5427 10.4673C79.0422 10.4673 78.6478 10.5784 78.3594 10.8004C78.0744 11.0192 77.8772 11.2628 77.7678 11.5312L76.3708 11.2131C76.5365 10.7491 76.7785 10.3745 77.0966 10.0895C77.4181 9.80114 77.7877 9.59233 78.2053 9.46307C78.6229 9.33049 79.0621 9.2642 79.5228 9.2642C79.8277 9.2642 80.1508 9.30066 80.4922 9.37358C80.8369 9.44318 81.1584 9.57244 81.4567 9.76136C81.7583 9.95028 82.0053 10.2204 82.1975 10.5717C82.3897 10.9197 82.4858 11.3722 82.4858 11.929V17H81.0341V15.956H80.9745C80.8784 16.1482 80.7342 16.3371 80.5419 16.5227C80.3497 16.7083 80.1028 16.8625 79.8012 16.9851C79.4996 17.1077 79.1383 17.169 78.7174 17.169ZM79.0405 15.9759C79.4515 15.9759 79.8028 15.8946 80.0945 15.7322C80.3895 15.5698 80.6132 15.3577 80.7657 15.0959C80.9214 14.8307 80.9993 14.5473 80.9993 14.2457V13.2614C80.9463 13.3144 80.8436 13.3641 80.6911 13.4105C80.5419 13.4536 80.3713 13.4917 80.179 13.5249C79.9868 13.5547 79.7995 13.5829 79.6172 13.6094C79.4349 13.6326 79.2825 13.6525 79.1598 13.669C78.8715 13.7055 78.608 13.7668 78.3694 13.853C78.134 13.9392 77.9451 14.0634 77.8026 14.2259C77.6634 14.3849 77.5938 14.5971 77.5938 14.8622C77.5938 15.2301 77.7297 15.5085 78.0015 15.6974C78.2732 15.883 78.6196 15.9759 79.0405 15.9759ZM89.9081 11.228L88.5608 11.4666C88.5044 11.2943 88.4149 11.1302 88.2923 10.9744C88.173 10.8187 88.0106 10.6911 87.8051 10.5916C87.5996 10.4922 87.3427 10.4425 87.0345 10.4425C86.6136 10.4425 86.2622 10.5369 85.9805 10.7259C85.6988 10.9115 85.5579 11.1518 85.5579 11.4467C85.5579 11.7019 85.6524 11.9074 85.8413 12.0632C86.0302 12.219 86.3352 12.3466 86.7561 12.446L87.9692 12.7244C88.6718 12.8868 89.1955 13.1371 89.5402 13.4751C89.8849 13.8132 90.0572 14.2524 90.0572 14.7926C90.0572 15.25 89.9246 15.6577 89.6595 16.0156C89.3977 16.3703 89.0314 16.6487 88.5608 16.8509C88.0934 17.053 87.5515 17.1541 86.9351 17.1541C86.08 17.1541 85.3823 16.9718 84.842 16.6072C84.3018 16.2393 83.9703 15.7173 83.8477 15.0412L85.2845 14.8224C85.374 15.197 85.5579 15.4804 85.8363 15.6726C86.1148 15.8615 86.4777 15.956 86.9251 15.956C87.4123 15.956 87.8018 15.8549 88.0934 15.6527C88.3851 15.4472 88.5309 15.197 88.5309 14.902C88.5309 14.6634 88.4415 14.4628 88.2625 14.3004C88.0868 14.138 87.8167 14.0154 87.4521 13.9325L86.1595 13.6491C85.4469 13.4867 84.9199 13.2282 84.5785 12.8736C84.2405 12.5189 84.0714 12.0698 84.0714 11.5263C84.0714 11.0755 84.1974 10.6811 84.4493 10.343C84.7012 10.005 85.0492 9.74148 85.4933 9.55256C85.9374 9.36032 86.4462 9.2642 87.0196 9.2642C87.8449 9.2642 88.4945 9.44318 88.9684 9.80114C89.4424 10.1558 89.7556 10.6314 89.9081 11.228ZM94.9763 9.36364V10.5568H90.8051V9.36364H94.9763ZM91.9237 7.53409H93.4102V14.7578C93.4102 15.0462 93.4533 15.2633 93.5395 15.4091C93.6256 15.5516 93.7367 15.6494 93.8726 15.7024C94.0118 15.7521 94.1626 15.777 94.325 15.777C94.4443 15.777 94.5487 15.7687 94.6382 15.7521C94.7277 15.7356 94.7973 15.7223 94.847 15.7124L95.1155 16.9403C95.0293 16.9735 94.9067 17.0066 94.7476 17.0398C94.5885 17.0762 94.3896 17.0961 94.151 17.0994C93.7599 17.1061 93.3953 17.0365 93.0572 16.8906C92.7192 16.7448 92.4457 16.5194 92.2369 16.2145C92.0281 15.9096 91.9237 15.5268 91.9237 15.0661V7.53409Z" fill="black" fill-opacity="0.6"/>
</svg>
