<svg width="84" height="24" viewBox="0 0 84 24" fill="none" xmlns="http://www.w3.org/2000/svg">
<path d="M11.9989 7.47887C11.9985 7.46532 11.998 7.45177 11.9969 7.43813C11.9957 7.42444 11.994 7.41094 11.9922 7.39748C11.9912 7.39052 11.9909 7.38361 11.9898 7.37661L11.2398 2.87661C11.2237 2.77941 11.1885 2.68634 11.1364 2.60272C11.0843 2.5191 11.0162 2.44657 10.936 2.38928C10.8559 2.33198 10.7652 2.29105 10.6692 2.26881C10.5732 2.24657 10.4738 2.24346 10.3766 2.25966C10.2794 2.27586 10.1864 2.31105 10.1028 2.36323C10.0192 2.41541 9.9467 2.48354 9.88946 2.56374C9.83222 2.64394 9.79134 2.73463 9.76916 2.83063C9.74699 2.92664 9.74394 3.02607 9.76021 3.12325L10.3646 6.74993H8.625V2.99993C8.625 2.80102 8.54598 2.61025 8.40533 2.4696C8.26468 2.32895 8.07391 2.24993 7.875 2.24993C7.67609 2.24993 7.48532 2.32895 7.34467 2.4696C7.20402 2.61025 7.125 2.80102 7.125 2.99993V6.74993H5.38536L5.98979 3.12325C6.00606 3.02607 6.00301 2.92664 5.98083 2.83063C5.95866 2.73463 5.91778 2.64394 5.86053 2.56374C5.80329 2.48354 5.73081 2.41541 5.64722 2.36323C5.56364 2.31105 5.47059 2.27586 5.3734 2.25966C5.27621 2.24346 5.17678 2.24657 5.08079 2.26881C4.9848 2.29105 4.89413 2.33198 4.81397 2.38928C4.73381 2.44657 4.66572 2.5191 4.6136 2.60272C4.56148 2.68634 4.52635 2.77941 4.51021 2.87661L3.76021 7.37661C3.75906 7.38361 3.75879 7.39052 3.75778 7.39748C3.75595 7.41094 3.75426 7.42444 3.75311 7.43813C3.75197 7.45177 3.75146 7.46532 3.75105 7.47887C3.75087 7.48592 3.75 7.49284 3.75 7.49993C3.75 7.50661 3.75046 7.51316 3.7505 7.5198C3.75064 7.52442 3.75064 7.529 3.75087 7.53358C3.75993 8.49114 4.1014 9.4158 4.71687 10.1494C5.33235 10.883 6.18359 11.38 7.125 11.5553V20.9999C7.125 21.1988 7.20402 21.3896 7.34467 21.5303C7.48532 21.6709 7.67609 21.7499 7.875 21.7499C8.07391 21.7499 8.26468 21.6709 8.40533 21.5303C8.54598 21.3896 8.625 21.1988 8.625 20.9999V11.5553C9.56641 11.38 10.4177 10.883 11.0331 10.1494C11.6486 9.4158 11.9901 8.49113 11.9991 7.53358C11.9994 7.529 11.9994 7.52442 11.9995 7.51979C11.9995 7.51316 12 7.50661 12 7.49993C12 7.49284 11.9991 7.48592 11.9989 7.47887Z" fill="black"/>
<path d="M19.8743 2.98673C19.874 2.97126 19.8732 2.95578 19.8719 2.94026C19.8711 2.92973 19.8702 2.9193 19.8689 2.90891C19.8673 2.89595 19.8653 2.883 19.863 2.87004C19.8607 2.85699 19.8582 2.84409 19.8552 2.83131C19.8529 2.82115 19.8502 2.81104 19.8474 2.80092C19.8432 2.78586 19.8388 2.77103 19.8337 2.75638C19.8323 2.75217 19.8313 2.74791 19.8298 2.7437C19.8281 2.73917 19.826 2.73495 19.8242 2.73047C19.8186 2.71577 19.8125 2.70134 19.8059 2.68716C19.8017 2.67791 19.7973 2.66879 19.7927 2.65979C19.7866 2.64771 19.7801 2.63582 19.7732 2.62413C19.7672 2.61365 19.761 2.60335 19.7545 2.59323C19.7483 2.58371 19.7419 2.57446 19.7353 2.56522C19.7274 2.55405 19.7193 2.54311 19.7108 2.53249C19.7046 2.52466 19.6981 2.51711 19.6916 2.50955C19.6822 2.49875 19.6727 2.48808 19.6627 2.47787C19.6558 2.47073 19.6486 2.46387 19.6413 2.457C19.6313 2.44748 19.6213 2.43814 19.6108 2.42921C19.6024 2.42203 19.5936 2.41525 19.5849 2.40843C19.5751 2.40083 19.5652 2.39328 19.5551 2.38614C19.5447 2.37886 19.534 2.37204 19.5232 2.36531C19.5141 2.35959 19.505 2.35382 19.4956 2.34851C19.4834 2.34155 19.4709 2.33514 19.4583 2.32887C19.4496 2.32457 19.441 2.32027 19.4322 2.31628C19.4189 2.31033 19.4054 2.30493 19.3917 2.29971C19.3826 2.29628 19.3736 2.29285 19.3644 2.28973C19.3513 2.28529 19.338 2.2814 19.3246 2.27769C19.3138 2.27472 19.3032 2.27193 19.2924 2.26941C19.2805 2.26671 19.2684 2.26437 19.2563 2.26222C19.2432 2.25984 19.23 2.25783 19.2167 2.25618C19.2065 2.25494 19.1962 2.25394 19.1859 2.25307C19.1706 2.25183 19.1551 2.25105 19.1396 2.25073C19.1347 2.25064 19.1299 2.25 19.125 2.25C19.1204 2.25 19.116 2.2506 19.1115 2.25069C19.0961 2.25096 19.0807 2.25179 19.0653 2.25302C19.0547 2.25385 19.0443 2.2548 19.0338 2.25609C19.0209 2.25769 19.008 2.2597 18.995 2.26199C18.982 2.26428 18.969 2.2668 18.9563 2.26978C18.9461 2.27211 18.936 2.27476 18.9259 2.27756C18.9108 2.28168 18.896 2.28621 18.8813 2.29129C18.8771 2.29271 18.8729 2.29362 18.8687 2.29513C18.8594 2.29852 18.8503 2.30255 18.8411 2.30598C18.8376 2.3074 18.8341 2.30864 18.8306 2.3101C16.8984 3.03625 15.3511 5.4066 14.2315 9.35806C13.7236 11.1814 13.3551 13.0408 13.1293 14.9201C13.1181 15.0247 13.129 15.1305 13.1614 15.2306C13.1937 15.3308 13.2468 15.423 13.3171 15.5012C13.3875 15.5795 13.4735 15.6421 13.5696 15.685C13.6657 15.7278 13.7697 15.75 13.875 15.75H18.375V21C18.375 21.1989 18.454 21.3897 18.5946 21.5303C18.7353 21.671 18.9261 21.75 19.125 21.75C19.3239 21.75 19.5146 21.671 19.6553 21.5303C19.7959 21.3897 19.875 21.1989 19.875 21V3C19.875 2.99551 19.8744 2.99121 19.8743 2.98673Z" fill="black"/>
<path d="M35.1186 17H36.6548V12.5604H41.7308V17H43.272V6.81818H41.7308V11.2429H36.6548V6.81818H35.1186V17ZM48.4011 17.1541C50.0666 17.1541 51.2449 16.3338 51.5829 15.0909L50.176 14.8374C49.9075 15.5582 49.2612 15.9261 48.416 15.9261C47.1433 15.9261 46.2882 15.1009 46.2484 13.6293H51.6774V13.1023C51.6774 10.343 50.0268 9.2642 48.2967 9.2642C46.1689 9.2642 44.7669 10.8849 44.7669 13.2315C44.7669 15.603 46.149 17.1541 48.4011 17.1541ZM46.2534 12.5156C46.313 11.4318 47.0986 10.4922 48.3066 10.4922C49.4601 10.4922 50.2157 11.3473 50.2207 12.5156H46.2534ZM55.269 17.169C56.5318 17.169 57.2427 16.5277 57.5261 15.956H57.5858V17H59.0375V11.929C59.0375 9.70668 57.2875 9.2642 56.0744 9.2642C54.6923 9.2642 53.4196 9.82102 52.9224 11.2131L54.3194 11.5312C54.5382 10.9893 55.095 10.4673 56.0943 10.4673C57.0538 10.4673 57.546 10.9695 57.546 11.8345V11.8693C57.546 12.4112 56.9892 12.4013 55.617 12.5604C54.1703 12.7294 52.6888 13.1072 52.6888 14.8423C52.6888 16.3438 53.8173 17.169 55.269 17.169ZM55.5922 15.9759C54.752 15.9759 54.1454 15.598 54.1454 14.8622C54.1454 14.0668 54.8514 13.7834 55.7115 13.669C56.1937 13.6044 57.3372 13.4751 57.551 13.2614V14.2457C57.551 15.1506 56.8301 15.9759 55.5922 15.9759ZM62.2239 6.81818H60.7374V17H62.2239V6.81818ZM67.5084 9.36364H65.9423V7.53409H64.4558V9.36364H63.3372V10.5568H64.4558V15.0661C64.4508 16.4531 65.5098 17.1243 66.6831 17.0994C67.1554 17.0945 67.4736 17.005 67.6476 16.9403L67.3791 15.7124C67.2797 15.7322 67.0957 15.777 66.8571 15.777C66.3749 15.777 65.9423 15.6179 65.9423 14.7578V10.5568H67.5084V9.36364ZM70.5233 12.4659C70.5233 11.2479 71.2939 10.5518 72.3528 10.5518C73.377 10.5518 73.9885 11.2031 73.9885 12.3217V17H75.475V12.1428C75.475 10.2386 74.431 9.2642 72.8599 9.2642C71.6717 9.2642 70.9558 9.78125 70.5979 10.6065H70.5034V6.81818H69.0368V17H70.5233V12.4659ZM77.8449 19.8636C79.0728 19.8636 79.8484 19.2223 80.2909 18.0192L83.4478 9.37855L81.842 9.36364L79.9081 15.2898H79.8285L77.8946 9.36364H76.3037L79.0977 17.0994L78.9137 17.6065C78.5359 18.6207 78.0039 18.7053 77.1886 18.4815L76.8307 19.6996C77.0096 19.7791 77.3974 19.8636 77.8449 19.8636Z" fill="black" fill-opacity="0.6"/>
</svg>
