<svg width="97" height="24" viewBox="0 0 97 24" fill="none" xmlns="http://www.w3.org/2000/svg">
<path d="M11.9989 7.47893C11.9985 7.46538 11.998 7.45183 11.9969 7.43819C11.9957 7.42451 11.994 7.41101 11.9922 7.39754C11.9912 7.39059 11.9909 7.38367 11.9898 7.37667L11.2398 2.87667C11.2237 2.77947 11.1885 2.6864 11.1364 2.60278C11.0843 2.51916 11.0162 2.44663 10.936 2.38934C10.8559 2.33205 10.7652 2.29111 10.6692 2.26887C10.5732 2.24663 10.4738 2.24352 10.3766 2.25972C10.2794 2.27592 10.1864 2.31112 10.1028 2.36329C10.0192 2.41547 9.9467 2.4836 9.88946 2.5638C9.83222 2.644 9.79134 2.73469 9.76916 2.8307C9.74699 2.9267 9.74394 3.02613 9.76021 3.12331L10.3646 6.74999H8.625V2.99999C8.625 2.80108 8.54598 2.61031 8.40533 2.46966C8.26468 2.32901 8.07391 2.24999 7.875 2.24999C7.67609 2.24999 7.48532 2.32901 7.34467 2.46966C7.20402 2.61031 7.125 2.80108 7.125 2.99999V6.74999H5.38536L5.98979 3.12331C6.00606 3.02613 6.00301 2.9267 5.98083 2.8307C5.95866 2.73469 5.91778 2.644 5.86053 2.5638C5.80329 2.4836 5.73081 2.41547 5.64722 2.36329C5.56364 2.31112 5.47059 2.27592 5.3734 2.25972C5.27621 2.24352 5.17678 2.24663 5.08079 2.26887C4.9848 2.29111 4.89413 2.33205 4.81397 2.38934C4.73381 2.44663 4.66572 2.51916 4.6136 2.60278C4.56148 2.6864 4.52635 2.77947 4.51021 2.87667L3.76021 7.37667C3.75906 7.38367 3.75879 7.39059 3.75778 7.39754C3.75595 7.411 3.75426 7.42451 3.75311 7.43819C3.75197 7.45183 3.75146 7.46538 3.75105 7.47893C3.75087 7.48598 3.75 7.4929 3.75 7.49999C3.75 7.50667 3.75046 7.51322 3.7505 7.51986C3.75064 7.52448 3.75064 7.52906 3.75087 7.53364C3.75993 8.4912 4.1014 9.41586 4.71687 10.1495C5.33235 10.8831 6.18359 11.3801 7.125 11.5554V21C7.125 21.1989 7.20402 21.3897 7.34467 21.5303C7.48532 21.671 7.67609 21.75 7.875 21.75C8.07391 21.75 8.26468 21.671 8.40533 21.5303C8.54598 21.3897 8.625 21.1989 8.625 21V11.5554C9.56641 11.3801 10.4177 10.8831 11.0331 10.1495C11.6486 9.41586 11.9901 8.49119 11.9991 7.53364C11.9994 7.52906 11.9994 7.52448 11.9995 7.51986C11.9995 7.51322 12 7.50667 12 7.49999C12 7.4929 11.9991 7.48598 11.9989 7.47893Z" fill="black"/>
<path d="M19.8743 2.98673C19.8741 2.97126 19.8732 2.95578 19.872 2.94026C19.8712 2.92973 19.8702 2.9193 19.8689 2.90891C19.8673 2.89595 19.8653 2.883 19.863 2.87004C19.8607 2.85699 19.8582 2.84409 19.8553 2.83131C19.8529 2.82115 19.8503 2.81104 19.8475 2.80092C19.8433 2.78586 19.8388 2.77103 19.8337 2.75638C19.8323 2.75217 19.8314 2.74791 19.8299 2.7437C19.8282 2.73917 19.826 2.73495 19.8243 2.73047C19.8186 2.71577 19.8125 2.70134 19.806 2.68716C19.8018 2.67791 19.7974 2.66879 19.7928 2.65979C19.7866 2.64771 19.7801 2.63582 19.7733 2.62413C19.7673 2.61365 19.7611 2.60335 19.7546 2.59323C19.7484 2.58371 19.742 2.57446 19.7354 2.56522C19.7274 2.55405 19.7194 2.54311 19.7109 2.53249C19.7046 2.52466 19.6981 2.51711 19.6916 2.50955C19.6823 2.49875 19.6727 2.48808 19.6628 2.47787C19.6558 2.47073 19.6486 2.46387 19.6414 2.457C19.6314 2.44748 19.6213 2.43814 19.6108 2.42921C19.6024 2.42203 19.5937 2.41525 19.5849 2.40843C19.5751 2.40083 19.5653 2.39328 19.5551 2.38614C19.5447 2.37886 19.534 2.37204 19.5233 2.36531C19.5142 2.35959 19.5051 2.35382 19.4957 2.34851C19.4835 2.34155 19.471 2.33514 19.4583 2.32887C19.4497 2.32457 19.4411 2.32027 19.4322 2.31628C19.419 2.31033 19.4055 2.30493 19.3918 2.29971C19.3827 2.29628 19.3737 2.29285 19.3644 2.28973C19.3513 2.28529 19.338 2.2814 19.3246 2.27769C19.3139 2.27472 19.3032 2.27193 19.2924 2.26941C19.2805 2.26671 19.2685 2.26437 19.2564 2.26222C19.2432 2.25984 19.2301 2.25783 19.2168 2.25618C19.2066 2.25494 19.1963 2.25394 19.186 2.25307C19.1706 2.25183 19.1552 2.25105 19.1397 2.25073C19.1347 2.25064 19.13 2.25 19.125 2.25C19.1205 2.25 19.1161 2.2506 19.1116 2.25069C19.0962 2.25096 19.0808 2.25179 19.0654 2.25302C19.0548 2.25385 19.0443 2.2548 19.0339 2.25609C19.0209 2.25769 19.008 2.2597 18.9951 2.26199C18.982 2.26428 18.9691 2.2668 18.9563 2.26978C18.9462 2.27211 18.9361 2.27476 18.9259 2.27756C18.9109 2.28168 18.8961 2.28621 18.8814 2.29129C18.8772 2.29271 18.8729 2.29362 18.8687 2.29513C18.8595 2.29852 18.8504 2.30255 18.8412 2.30598C18.8377 2.3074 18.8341 2.30864 18.8306 2.3101C16.8985 3.03625 15.3511 5.4066 14.2315 9.35806C13.7237 11.1814 13.3552 13.0408 13.1293 14.9201C13.1181 15.0247 13.1291 15.1305 13.1614 15.2306C13.1938 15.3308 13.2469 15.423 13.3172 15.5012C13.3875 15.5795 13.4735 15.6421 13.5696 15.685C13.6657 15.7278 13.7698 15.75 13.875 15.75H18.375V21C18.375 21.1989 18.454 21.3897 18.5947 21.5303C18.7353 21.671 18.9261 21.75 19.125 21.75C19.3239 21.75 19.5147 21.671 19.6554 21.5303C19.796 21.3897 19.875 21.1989 19.875 21V3C19.875 2.99551 19.8744 2.99121 19.8743 2.98673Z" fill="black"/>
<path d="M39.076 6.81818V14.0369C39.071 15.2102 38.5241 15.8366 37.5497 15.8366C36.6499 15.8366 36.0234 15.2997 36.0185 14.4545H34.4922C34.4922 16.1747 35.7848 17.1392 37.5099 17.1392C39.3793 17.1392 40.6023 15.9957 40.6072 14.0369V6.81818H39.076ZM44.6662 17.169C45.929 17.169 46.6399 16.5277 46.9233 15.956H46.983V17H48.4347V11.929C48.4347 9.70668 46.6847 9.2642 45.4716 9.2642C44.0895 9.2642 42.8168 9.82102 42.3196 11.2131L43.7166 11.5312C43.9354 10.9893 44.4922 10.4673 45.4915 10.4673C46.451 10.4673 46.9432 10.9695 46.9432 11.8345V11.8693C46.9432 12.4112 46.3864 12.4013 45.0142 12.5604C43.5675 12.7294 42.0859 13.1072 42.0859 14.8423C42.0859 16.3438 43.2145 17.169 44.6662 17.169ZM44.9894 15.9759C44.1492 15.9759 43.5426 15.598 43.5426 14.8622C43.5426 14.0668 44.2486 13.7834 45.1087 13.669C45.5909 13.6044 46.7344 13.4751 46.9482 13.2614V14.2457C46.9482 15.1506 46.2273 15.9759 44.9894 15.9759ZM50.1346 19.8636H51.6211V15.8118H51.7106C51.9791 16.299 52.5259 17.1491 53.918 17.1491C55.7674 17.1491 57.1097 15.6676 57.1097 13.1967C57.1097 10.7209 55.7475 9.2642 53.9031 9.2642C52.4862 9.2642 51.9741 10.1293 51.7106 10.6016H51.5863V9.36364H50.1346V19.8636ZM51.5913 13.1818C51.5913 11.5859 52.2873 10.527 53.5849 10.527C54.9322 10.527 55.6083 11.6655 55.6083 13.1818C55.6083 14.7131 54.9123 15.8814 53.5849 15.8814C52.3072 15.8814 51.5913 14.7876 51.5913 13.1818ZM60.7175 17.169C61.9803 17.169 62.6912 16.5277 62.9746 15.956H63.0343V17H64.486V11.929C64.486 9.70668 62.736 9.2642 61.5229 9.2642C60.1408 9.2642 58.8681 9.82102 58.3709 11.2131L59.768 11.5312C59.9867 10.9893 60.5435 10.4673 61.5428 10.4673C62.5023 10.4673 62.9945 10.9695 62.9945 11.8345V11.8693C62.9945 12.4112 62.4377 12.4013 61.0655 12.5604C59.6188 12.7294 58.1373 13.1072 58.1373 14.8423C58.1373 16.3438 59.2658 17.169 60.7175 17.169ZM61.0407 15.9759C60.2005 15.9759 59.5939 15.598 59.5939 14.8622C59.5939 14.0668 60.2999 13.7834 61.16 13.669C61.6422 13.6044 62.7857 13.4751 62.9995 13.2614V14.2457C62.9995 15.1506 62.2786 15.9759 61.0407 15.9759ZM67.6724 12.4659C67.6724 11.2479 68.4182 10.5518 69.4523 10.5518C70.4615 10.5518 71.073 11.2131 71.073 12.3217V17H72.5595V12.1428C72.5595 10.2536 71.5204 9.2642 69.9594 9.2642C68.8109 9.2642 68.0602 9.79616 67.7072 10.6065H67.6128V9.36364H66.1859V17H67.6724V12.4659ZM77.5643 17.1541C79.2298 17.1541 80.4081 16.3338 80.7461 15.0909L79.3392 14.8374C79.0707 15.5582 78.4244 15.9261 77.5792 15.9261C76.3065 15.9261 75.4514 15.1009 75.4116 13.6293H80.8406V13.1023C80.8406 10.343 79.19 9.2642 77.4599 9.2642C75.3321 9.2642 73.9301 10.8849 73.9301 13.2315C73.9301 15.603 75.3122 17.1541 77.5643 17.1541ZM75.4166 12.5156C75.4762 11.4318 76.2618 10.4922 77.4698 10.4922C78.6233 10.4922 79.3789 11.3473 79.3839 12.5156H75.4166ZM87.9322 11.228C87.624 10.0398 86.6943 9.2642 85.0437 9.2642C83.3186 9.2642 82.0956 10.174 82.0956 11.5263C82.0956 12.6101 82.7518 13.331 84.1836 13.6491L85.4762 13.9325C86.212 14.0966 86.5551 14.4247 86.5551 14.902C86.5551 15.4936 85.9237 15.956 84.9493 15.956C84.0593 15.956 83.4876 15.5732 83.3086 14.8224L81.8718 15.0412C82.1204 16.3935 83.244 17.1541 84.9592 17.1541C86.8037 17.1541 88.0814 16.1747 88.0814 14.7926C88.0814 13.7138 87.3953 13.0476 85.9933 12.7244L84.7802 12.446C83.94 12.2472 83.5771 11.9638 83.5821 11.4467C83.5771 10.8601 84.2135 10.4425 85.0586 10.4425C85.9834 10.4425 86.4109 10.9545 86.5849 11.4666L87.9322 11.228ZM92.727 17.1541C94.3925 17.1541 95.5707 16.3338 95.9088 15.0909L94.5018 14.8374C94.2334 15.5582 93.5871 15.9261 92.7419 15.9261C91.4692 15.9261 90.614 15.1009 90.5743 13.6293H96.0032V13.1023C96.0032 10.343 94.3527 9.2642 92.6226 9.2642C90.4947 9.2642 89.0927 10.8849 89.0927 13.2315C89.0927 15.603 90.4748 17.1541 92.727 17.1541ZM90.5792 12.5156C90.6389 11.4318 91.4244 10.4922 92.6325 10.4922C93.7859 10.4922 94.5416 11.3473 94.5466 12.5156H90.5792Z" fill="black" fill-opacity="0.6"/>
</svg>
