<svg width="400" height="434" viewBox="0 0 400 434" fill="none" xmlns="http://www.w3.org/2000/svg">
<mask id="mask0_101_980" style="mask-type:alpha" maskUnits="userSpaceOnUse" x="0" y="0" width="400" height="434">
<rect width="400" height="434" fill="url(#paint0_linear_101_980)"/>
</mask>
<g mask="url(#mask0_101_980)">
<rect width="400" height="434" fill="url(#paint1_linear_101_980)"/>
<path d="M200 -138L202.813 181.256L255.534 -133.629L208.37 182.136L309.701 -120.625L213.721 183.874L361.167 -99.3073L218.734 186.429L408.664 -70.201L223.286 189.736L451.023 -34.0229L227.264 193.714L487.201 8.33624L230.571 198.266L516.307 55.8334L233.126 203.279L537.625 107.299L234.864 208.63L550.629 161.466L235.744 214.187L555 217L235.744 219.813L550.629 272.534L234.864 225.37L537.625 326.701L233.126 230.721L516.307 378.167L230.571 235.734L487.201 425.664L227.264 240.286L451.023 468.023L223.286 244.264L408.664 504.201L218.734 247.571L361.167 533.307L213.721 250.126L309.701 554.625L208.37 251.864L255.534 567.629L202.813 252.744L200 572L197.187 252.744L144.466 567.629L191.63 251.864L90.299 554.625L186.279 250.126L38.8334 533.307L181.266 247.571L-8.66376 504.201L176.714 244.264L-51.0229 468.023L172.736 240.286L-87.201 425.664L169.429 235.734L-116.307 378.167L166.874 230.721L-137.625 326.701L165.136 225.37L-150.629 272.534L164.256 219.813L-155 217L164.256 214.187L-150.629 161.466L165.136 208.63L-137.625 107.299L166.874 203.279L-116.307 55.8334L169.429 198.266L-87.201 8.33624L172.736 193.714L-51.0229 -34.0229L176.714 189.736L-8.66376 -70.201L181.266 186.429L38.8334 -99.3073L186.279 183.874L90.299 -120.625L191.63 182.136L144.466 -133.629L197.187 181.256L200 -138Z" fill="url(#paint2_radial_101_980)"/>
</g>
<defs>
<linearGradient id="paint0_linear_101_980" x1="200" y1="0" x2="200" y2="434" gradientUnits="userSpaceOnUse">
<stop stop-color="#357355"/>
<stop offset="1" stop-color="#1D483B"/>
</linearGradient>
<linearGradient id="paint1_linear_101_980" x1="200" y1="0" x2="200" y2="434" gradientUnits="userSpaceOnUse">
<stop stop-color="#357355"/>
<stop offset="1" stop-color="#1D483B"/>
</linearGradient>
<radialGradient id="paint2_radial_101_980" cx="0" cy="0" r="1" gradientUnits="userSpaceOnUse" gradientTransform="translate(200 217) rotate(90) scale(215.5)">
<stop stop-color="#3A795B"/>
<stop offset="1" stop-color="#3A795B" stop-opacity="0"/>
</radialGradient>
</defs>
</svg>
