<svg width="89" height="24" viewBox="0 0 89 24" fill="none" xmlns="http://www.w3.org/2000/svg">
<path d="M11.9989 7.47893C11.9985 7.46538 11.998 7.45183 11.9969 7.43819C11.9957 7.42451 11.994 7.41101 11.9922 7.39754C11.9912 7.39059 11.9909 7.38367 11.9898 7.37667L11.2398 2.87667C11.2237 2.77947 11.1885 2.6864 11.1364 2.60278C11.0843 2.51916 11.0162 2.44663 10.936 2.38934C10.8559 2.33205 10.7652 2.29111 10.6692 2.26887C10.5732 2.24663 10.4738 2.24352 10.3766 2.25972C10.2794 2.27592 10.1864 2.31112 10.1028 2.36329C10.0192 2.41547 9.9467 2.4836 9.88946 2.5638C9.83222 2.644 9.79134 2.73469 9.76916 2.8307C9.74699 2.9267 9.74394 3.02613 9.76021 3.12331L10.3646 6.74999H8.625V2.99999C8.625 2.80108 8.54598 2.61031 8.40533 2.46966C8.26468 2.32901 8.07391 2.24999 7.875 2.24999C7.67609 2.24999 7.48532 2.32901 7.34467 2.46966C7.20402 2.61031 7.125 2.80108 7.125 2.99999V6.74999H5.38536L5.98979 3.12331C6.00606 3.02613 6.00301 2.9267 5.98083 2.8307C5.95866 2.73469 5.91778 2.644 5.86053 2.5638C5.80329 2.4836 5.73081 2.41547 5.64722 2.36329C5.56364 2.31112 5.47059 2.27592 5.3734 2.25972C5.27621 2.24352 5.17678 2.24663 5.08079 2.26887C4.9848 2.29111 4.89413 2.33205 4.81397 2.38934C4.73381 2.44663 4.66572 2.51916 4.6136 2.60278C4.56148 2.6864 4.52635 2.77947 4.51021 2.87667L3.76021 7.37667C3.75906 7.38367 3.75879 7.39059 3.75778 7.39754C3.75595 7.411 3.75426 7.42451 3.75311 7.43819C3.75197 7.45183 3.75146 7.46538 3.75105 7.47893C3.75087 7.48598 3.75 7.4929 3.75 7.49999C3.75 7.50667 3.75046 7.51322 3.7505 7.51986C3.75064 7.52448 3.75064 7.52906 3.75087 7.53364C3.75993 8.4912 4.1014 9.41586 4.71687 10.1495C5.33235 10.8831 6.18359 11.3801 7.125 11.5554V21C7.125 21.1989 7.20402 21.3897 7.34467 21.5303C7.48532 21.671 7.67609 21.75 7.875 21.75C8.07391 21.75 8.26468 21.671 8.40533 21.5303C8.54598 21.3897 8.625 21.1989 8.625 21V11.5554C9.56641 11.3801 10.4177 10.8831 11.0331 10.1495C11.6486 9.41586 11.9901 8.49119 11.9991 7.53364C11.9994 7.52906 11.9994 7.52448 11.9995 7.51986C11.9995 7.51322 12 7.50667 12 7.49999C12 7.4929 11.9991 7.48598 11.9989 7.47893Z" fill="black"/>
<path d="M19.8743 2.98673C19.874 2.97126 19.8732 2.95578 19.8719 2.94026C19.8711 2.92973 19.8702 2.9193 19.8689 2.90891C19.8673 2.89595 19.8653 2.883 19.863 2.87004C19.8607 2.85699 19.8582 2.84409 19.8552 2.83131C19.8529 2.82115 19.8502 2.81104 19.8474 2.80092C19.8432 2.78586 19.8388 2.77103 19.8337 2.75638C19.8323 2.75217 19.8313 2.74791 19.8298 2.7437C19.8281 2.73917 19.826 2.73495 19.8242 2.73047C19.8186 2.71577 19.8125 2.70134 19.8059 2.68716C19.8017 2.67791 19.7973 2.66879 19.7927 2.65979C19.7866 2.64771 19.7801 2.63582 19.7732 2.62413C19.7672 2.61365 19.761 2.60335 19.7545 2.59323C19.7483 2.58371 19.7419 2.57446 19.7353 2.56522C19.7274 2.55405 19.7193 2.54311 19.7108 2.53249C19.7046 2.52466 19.6981 2.51711 19.6916 2.50955C19.6822 2.49875 19.6727 2.48808 19.6627 2.47787C19.6558 2.47073 19.6486 2.46387 19.6413 2.457C19.6313 2.44748 19.6213 2.43814 19.6108 2.42921C19.6024 2.42203 19.5936 2.41525 19.5849 2.40843C19.5751 2.40083 19.5652 2.39328 19.5551 2.38614C19.5447 2.37886 19.534 2.37204 19.5232 2.36531C19.5141 2.35959 19.505 2.35382 19.4956 2.34851C19.4834 2.34155 19.4709 2.33514 19.4583 2.32887C19.4496 2.32457 19.441 2.32027 19.4322 2.31628C19.4189 2.31033 19.4054 2.30493 19.3917 2.29971C19.3826 2.29628 19.3736 2.29285 19.3644 2.28973C19.3513 2.28529 19.338 2.2814 19.3246 2.27769C19.3138 2.27472 19.3032 2.27193 19.2924 2.26941C19.2805 2.26671 19.2684 2.26437 19.2563 2.26222C19.2432 2.25984 19.23 2.25783 19.2167 2.25618C19.2065 2.25494 19.1962 2.25394 19.1859 2.25307C19.1706 2.25183 19.1551 2.25105 19.1396 2.25073C19.1347 2.25064 19.1299 2.25 19.125 2.25C19.1204 2.25 19.116 2.2506 19.1115 2.25069C19.0961 2.25096 19.0807 2.25179 19.0653 2.25302C19.0547 2.25385 19.0443 2.2548 19.0338 2.25609C19.0209 2.25769 19.008 2.2597 18.995 2.26199C18.982 2.26428 18.969 2.2668 18.9563 2.26978C18.9461 2.27211 18.936 2.27476 18.9259 2.27756C18.9108 2.28168 18.896 2.28621 18.8813 2.29129C18.8771 2.29271 18.8729 2.29362 18.8687 2.29513C18.8594 2.29852 18.8503 2.30255 18.8411 2.30598C18.8376 2.3074 18.8341 2.30864 18.8306 2.3101C16.8984 3.03625 15.3511 5.4066 14.2315 9.35806C13.7236 11.1814 13.3551 13.0408 13.1293 14.9201C13.1181 15.0247 13.129 15.1305 13.1614 15.2306C13.1937 15.3308 13.2468 15.423 13.3171 15.5012C13.3875 15.5795 13.4735 15.6421 13.5696 15.685C13.6657 15.7278 13.7697 15.75 13.875 15.75H18.375V21C18.375 21.1989 18.454 21.3897 18.5946 21.5303C18.7353 21.671 18.9261 21.75 19.125 21.75C19.3239 21.75 19.5146 21.671 19.6553 21.5303C19.7959 21.3897 19.875 21.1989 19.875 21V3C19.875 2.99551 19.8744 2.99121 19.8743 2.98673Z" fill="black"/>
<path d="M40.6719 9.4929H42.1534C42.1087 7.86222 40.6669 6.67898 38.5987 6.67898C36.5554 6.67898 34.9893 7.8473 34.9893 9.60227C34.9893 11.0192 36.0036 11.8494 37.6392 12.2919L38.8423 12.62C39.9311 12.9084 40.7713 13.2663 40.7713 14.1712C40.7713 15.1655 39.8217 15.8217 38.5142 15.8217C37.331 15.8217 36.3466 15.2947 36.2571 14.1861H34.7159C34.8153 16.0305 36.2422 17.169 38.5241 17.169C40.9155 17.169 42.2926 15.9112 42.2926 14.1861C42.2926 12.3516 40.657 11.6406 39.3643 11.3224L38.37 11.0639C37.5746 10.8601 36.5156 10.4872 36.5206 9.51278C36.5206 8.64773 37.3111 8.00639 38.5639 8.00639C39.7322 8.00639 40.5625 8.55327 40.6719 9.4929ZM47.0202 17.1541C48.6857 17.1541 49.864 16.3338 50.2021 15.0909L48.7951 14.8374C48.5266 15.5582 47.8803 15.9261 47.0352 15.9261C45.7624 15.9261 44.9073 15.1009 44.8676 13.6293H50.2965V13.1023C50.2965 10.343 48.646 9.2642 46.9158 9.2642C44.788 9.2642 43.386 10.8849 43.386 13.2315C43.386 15.603 44.7681 17.1541 47.0202 17.1541ZM44.8725 12.5156C44.9322 11.4318 45.7177 10.4922 46.9258 10.4922C48.0792 10.4922 48.8349 11.3473 48.8399 12.5156H44.8725ZM53.8882 17.169C55.1509 17.169 55.8619 16.5277 56.1453 15.956H56.2049V17H57.6566V11.929C57.6566 9.70668 55.9066 9.2642 54.6936 9.2642C53.3114 9.2642 52.0387 9.82102 51.5416 11.2131L52.9386 11.5312C53.1573 10.9893 53.7141 10.4673 54.7134 10.4673C55.673 10.4673 56.1651 10.9695 56.1651 11.8345V11.8693C56.1651 12.4112 55.6083 12.4013 54.2362 12.5604C52.7894 12.7294 51.3079 13.1072 51.3079 14.8423C51.3079 16.3438 52.4364 17.169 53.8882 17.169ZM54.2113 15.9759C53.3711 15.9759 52.7646 15.598 52.7646 14.8622C52.7646 14.0668 53.4705 13.7834 54.3306 13.669C54.8129 13.6044 55.9563 13.4751 56.1701 13.2614V14.2457C56.1701 15.1506 55.4492 15.9759 54.2113 15.9759ZM62.9908 9.36364H61.3452V8.67756C61.3452 8.00142 61.6236 7.63352 62.3495 7.63352C62.6577 7.63352 62.8764 7.70312 63.0156 7.74787L63.3637 6.54474C63.1549 6.4652 62.7223 6.34091 62.1208 6.34091C60.9127 6.34091 59.8537 7.04688 59.8537 8.47869V9.36364H58.6754V10.5568H59.8537V17H61.3452V10.5568H62.9908V9.36364ZM67.1604 17.1541C69.3131 17.1541 70.72 15.5781 70.72 13.2166C70.72 10.8402 69.3131 9.2642 67.1604 9.2642C65.0077 9.2642 63.6007 10.8402 63.6007 13.2166C63.6007 15.5781 65.0077 17.1541 67.1604 17.1541ZM67.1653 15.9062C65.7584 15.9062 65.1021 14.6783 65.1021 13.2116C65.1021 11.75 65.7584 10.5071 67.1653 10.5071C68.5623 10.5071 69.2186 11.75 69.2186 13.2116C69.2186 14.6783 68.5623 15.9062 67.1653 15.9062ZM75.3159 17.1541C77.4686 17.1541 78.8756 15.5781 78.8756 13.2166C78.8756 10.8402 77.4686 9.2642 75.3159 9.2642C73.1632 9.2642 71.7562 10.8402 71.7562 13.2166C71.7562 15.5781 73.1632 17.1541 75.3159 17.1541ZM75.3209 15.9062C73.9139 15.9062 73.2577 14.6783 73.2577 13.2116C73.2577 11.75 73.9139 10.5071 75.3209 10.5071C76.7179 10.5071 77.3741 11.75 77.3741 13.2116C77.3741 14.6783 76.7179 15.9062 75.3209 15.9062ZM83.1135 17.1491C84.5055 17.1491 85.0524 16.299 85.3209 15.8118H85.4452V17H86.8969V6.81818H85.4104V10.6016H85.3209C85.0524 10.1293 84.5453 9.2642 83.1234 9.2642C81.279 9.2642 79.9217 10.7209 79.9217 13.1967C79.9217 15.6676 81.2591 17.1491 83.1135 17.1491ZM83.4416 15.8814C82.1142 15.8814 81.4232 14.7131 81.4232 13.1818C81.4232 11.6655 82.0993 10.527 83.4416 10.527C84.7392 10.527 85.4352 11.5859 85.4352 13.1818C85.4352 14.7876 84.7243 15.8814 83.4416 15.8814Z" fill="black" fill-opacity="0.6"/>
</svg>
