<svg width="74" height="24" viewBox="0 0 74 24" fill="none" xmlns="http://www.w3.org/2000/svg">
<path d="M11.9989 7.47887C11.9985 7.46532 11.998 7.45177 11.9969 7.43813C11.9957 7.42444 11.994 7.41094 11.9922 7.39748C11.9912 7.39052 11.9909 7.38361 11.9898 7.37661L11.2398 2.87661C11.2237 2.77941 11.1885 2.68634 11.1364 2.60272C11.0843 2.5191 11.0162 2.44657 10.936 2.38928C10.8559 2.33198 10.7652 2.29105 10.6692 2.26881C10.5732 2.24657 10.4738 2.24346 10.3766 2.25966C10.2794 2.27586 10.1864 2.31105 10.1028 2.36323C10.0192 2.41541 9.9467 2.48354 9.88946 2.56374C9.83222 2.64394 9.79134 2.73463 9.76916 2.83063C9.74699 2.92664 9.74394 3.02607 9.76021 3.12325L10.3646 6.74993H8.625V2.99993C8.625 2.80102 8.54598 2.61025 8.40533 2.4696C8.26468 2.32895 8.07391 2.24993 7.875 2.24993C7.67609 2.24993 7.48532 2.32895 7.34467 2.4696C7.20402 2.61025 7.125 2.80102 7.125 2.99993V6.74993H5.38536L5.98979 3.12325C6.00606 3.02607 6.00301 2.92664 5.98083 2.83063C5.95866 2.73463 5.91778 2.64394 5.86053 2.56374C5.80329 2.48354 5.73081 2.41541 5.64722 2.36323C5.56364 2.31105 5.47059 2.27586 5.3734 2.25966C5.27621 2.24346 5.17678 2.24657 5.08079 2.26881C4.9848 2.29105 4.89413 2.33198 4.81397 2.38928C4.73381 2.44657 4.66572 2.5191 4.6136 2.60272C4.56148 2.68634 4.52635 2.77941 4.51021 2.87661L3.76021 7.37661C3.75906 7.38361 3.75879 7.39052 3.75778 7.39748C3.75595 7.41094 3.75426 7.42444 3.75311 7.43813C3.75197 7.45177 3.75146 7.46532 3.75105 7.47887C3.75087 7.48592 3.75 7.49284 3.75 7.49993C3.75 7.50661 3.75046 7.51316 3.7505 7.5198C3.75064 7.52442 3.75064 7.529 3.75087 7.53358C3.75993 8.49114 4.1014 9.4158 4.71687 10.1494C5.33235 10.883 6.18359 11.38 7.125 11.5553V20.9999C7.125 21.1988 7.20402 21.3896 7.34467 21.5303C7.48532 21.6709 7.67609 21.7499 7.875 21.7499C8.07391 21.7499 8.26468 21.6709 8.40533 21.5303C8.54598 21.3896 8.625 21.1988 8.625 20.9999V11.5553C9.56641 11.38 10.4177 10.883 11.0331 10.1494C11.6486 9.4158 11.9901 8.49113 11.9991 7.53358C11.9994 7.529 11.9994 7.52442 11.9995 7.51979C11.9995 7.51316 12 7.50661 12 7.49993C12 7.49284 11.9991 7.48592 11.9989 7.47887Z" fill="black"/>
<path d="M19.8743 2.98673C19.874 2.97126 19.8732 2.95578 19.8719 2.94026C19.8711 2.92973 19.8702 2.9193 19.8689 2.90891C19.8673 2.89595 19.8653 2.883 19.863 2.87004C19.8607 2.85699 19.8582 2.84409 19.8552 2.83131C19.8529 2.82115 19.8502 2.81104 19.8474 2.80092C19.8432 2.78586 19.8388 2.77103 19.8337 2.75638C19.8323 2.75217 19.8313 2.74791 19.8298 2.7437C19.8281 2.73917 19.826 2.73495 19.8242 2.73047C19.8186 2.71577 19.8125 2.70134 19.8059 2.68716C19.8017 2.67791 19.7973 2.66879 19.7927 2.65979C19.7866 2.64771 19.7801 2.63582 19.7732 2.62413C19.7672 2.61365 19.761 2.60335 19.7545 2.59323C19.7483 2.58371 19.7419 2.57446 19.7353 2.56522C19.7274 2.55405 19.7193 2.54311 19.7108 2.53249C19.7046 2.52466 19.6981 2.51711 19.6916 2.50955C19.6822 2.49875 19.6727 2.48808 19.6627 2.47787C19.6558 2.47073 19.6486 2.46387 19.6413 2.457C19.6313 2.44748 19.6213 2.43814 19.6108 2.42921C19.6024 2.42203 19.5936 2.41525 19.5849 2.40843C19.5751 2.40083 19.5652 2.39328 19.5551 2.38614C19.5447 2.37886 19.534 2.37204 19.5232 2.36531C19.5141 2.35959 19.505 2.35382 19.4956 2.34851C19.4834 2.34155 19.4709 2.33514 19.4583 2.32887C19.4496 2.32457 19.441 2.32027 19.4322 2.31628C19.4189 2.31033 19.4054 2.30493 19.3917 2.29971C19.3826 2.29628 19.3736 2.29285 19.3644 2.28973C19.3513 2.28529 19.338 2.2814 19.3246 2.27769C19.3138 2.27472 19.3032 2.27193 19.2924 2.26941C19.2805 2.26671 19.2684 2.26437 19.2563 2.26222C19.2432 2.25984 19.23 2.25783 19.2167 2.25618C19.2065 2.25494 19.1962 2.25394 19.1859 2.25307C19.1706 2.25183 19.1551 2.25105 19.1396 2.25073C19.1347 2.25064 19.1299 2.25 19.125 2.25C19.1204 2.25 19.116 2.2506 19.1115 2.25069C19.0961 2.25096 19.0807 2.25179 19.0653 2.25302C19.0547 2.25385 19.0443 2.2548 19.0338 2.25609C19.0209 2.25769 19.008 2.2597 18.995 2.26199C18.982 2.26428 18.969 2.2668 18.9563 2.26978C18.9461 2.27211 18.936 2.27476 18.9259 2.27756C18.9108 2.28168 18.896 2.28621 18.8813 2.29129C18.8771 2.29271 18.8729 2.29362 18.8687 2.29513C18.8594 2.29852 18.8503 2.30255 18.8411 2.30598C18.8376 2.3074 18.8341 2.30864 18.8306 2.3101C16.8984 3.03625 15.3511 5.4066 14.2315 9.35806C13.7236 11.1814 13.3551 13.0408 13.1293 14.9201C13.1181 15.0247 13.129 15.1305 13.1614 15.2306C13.1937 15.3308 13.2468 15.423 13.3171 15.5012C13.3875 15.5795 13.4735 15.6421 13.5696 15.685C13.6657 15.7278 13.7697 15.75 13.875 15.75H18.375V21C18.375 21.1989 18.454 21.3897 18.5946 21.5303C18.7353 21.671 18.9261 21.75 19.125 21.75C19.3239 21.75 19.5146 21.671 19.6553 21.5303C19.7959 21.3897 19.875 21.1989 19.875 21V3C19.875 2.99551 19.8744 2.99121 19.8743 2.98673Z" fill="black"/>
<path d="M40.6719 9.4929H42.1534C42.1087 7.86222 40.6669 6.67898 38.5987 6.67898C36.5554 6.67898 34.9893 7.8473 34.9893 9.60227C34.9893 11.0192 36.0036 11.8494 37.6392 12.2919L38.8423 12.62C39.9311 12.9084 40.7713 13.2663 40.7713 14.1712C40.7713 15.1655 39.8217 15.8217 38.5142 15.8217C37.331 15.8217 36.3466 15.2947 36.2571 14.1861H34.7159C34.8153 16.0305 36.2422 17.169 38.5241 17.169C40.9155 17.169 42.2926 15.9112 42.2926 14.1861C42.2926 12.3516 40.657 11.6406 39.3643 11.3224L38.37 11.0639C37.5746 10.8601 36.5156 10.4872 36.5206 9.51278C36.5206 8.64773 37.3111 8.00639 38.5639 8.00639C39.7322 8.00639 40.5625 8.55327 40.6719 9.4929ZM45.2156 12.4659C45.2156 11.2479 45.9613 10.5518 46.9954 10.5518C48.0046 10.5518 48.6161 11.2131 48.6161 12.3217V17H50.1026V12.1428C50.1026 10.2536 49.0636 9.2642 47.5025 9.2642C46.3541 9.2642 45.6033 9.79616 45.2504 10.6065H45.1559V9.36364H43.7291V17H45.2156V12.4659ZM54.0385 17.169C55.3013 17.169 56.0123 16.5277 56.2956 15.956H56.3553V17H57.807V11.929C57.807 9.70668 56.057 9.2642 54.8439 9.2642C53.4618 9.2642 52.1891 9.82102 51.692 11.2131L53.089 11.5312C53.3077 10.9893 53.8645 10.4673 54.8638 10.4673C55.8233 10.4673 56.3155 10.9695 56.3155 11.8345V11.8693C56.3155 12.4112 55.7587 12.4013 54.3866 12.5604C52.9398 12.7294 51.4583 13.1072 51.4583 14.8423C51.4583 16.3438 52.5868 17.169 54.0385 17.169ZM54.3617 15.9759C53.5215 15.9759 52.915 15.598 52.915 14.8622C52.915 14.0668 53.6209 13.7834 54.481 13.669C54.9633 13.6044 56.1067 13.4751 56.3205 13.2614V14.2457C56.3205 15.1506 55.5996 15.9759 54.3617 15.9759ZM62.7236 17.1541C64.5283 17.1541 65.6966 16.0703 65.8606 14.5838H64.4139C64.225 15.4091 63.5837 15.8963 62.7335 15.8963C61.4757 15.8963 60.6653 14.8473 60.6653 13.1818C60.6653 11.5462 61.4906 10.517 62.7335 10.517C63.6781 10.517 64.2548 11.1136 64.4139 11.8295H65.8606C65.7015 10.2884 64.4437 9.2642 62.7087 9.2642C60.556 9.2642 59.1639 10.8849 59.1639 13.2166C59.1639 15.5185 60.5062 17.1541 62.7236 17.1541ZM67.1703 17H68.6568V14.2905L69.3976 13.5497L71.9927 17H73.8173L70.5162 12.6399L73.6085 9.36364H71.8287L68.7861 12.5952H68.6568V6.81818H67.1703V17Z" fill="black" fill-opacity="0.6"/>
</svg>
