<svg width="18" height="18" viewBox="0 0 18 18" fill="none" xmlns="http://www.w3.org/2000/svg">
<path d="M9 0C7.21997 0 5.47991 0.527841 3.99987 1.51677C2.51983 2.50571 1.36628 3.91131 0.685088 5.55585C0.00389957 7.20038 -0.17433 9.00998 0.172937 10.7558C0.520204 12.5016 1.37737 14.1053 2.63604 15.364C3.89472 16.6226 5.49836 17.4798 7.24419 17.8271C8.99002 18.1743 10.7996 17.9961 12.4442 17.3149C14.0887 16.6337 15.4943 15.4802 16.4832 14.0001C17.4722 12.5201 18 10.78 18 9C17.9973 6.61388 17.0482 4.32626 15.361 2.63902C13.6737 0.951776 11.3861 0.0026982 9 0ZM13.2426 5.81799L9.53037 9.53032C9.46073 9.59997 9.37805 9.65522 9.28705 9.69291C9.19606 9.73061 9.09853 9.75001 9.00004 9.75002C8.90154 9.75002 8.80401 9.73063 8.71301 9.69294C8.62202 9.65525 8.53933 9.60001 8.46968 9.53037C8.40004 9.46072 8.34479 9.37805 8.30709 9.28705C8.26939 9.19606 8.24999 9.09853 8.24999 9.00003C8.24998 8.90154 8.26938 8.80401 8.30707 8.71301C8.34475 8.62201 8.4 8.53933 8.46964 8.46968L12.182 4.75736C12.2516 4.68771 12.3343 4.63246 12.4253 4.59477C12.5163 4.55708 12.6138 4.53767 12.7123 4.53767C12.8108 4.53767 12.9083 4.55707 12.9993 4.59476C13.0903 4.63244 13.173 4.68769 13.2426 4.75733C13.3123 4.82697 13.3675 4.90965 13.4052 5.00065C13.4429 5.09164 13.4623 5.18916 13.4623 5.28766C13.4623 5.38615 13.4429 5.48368 13.4052 5.57467C13.3675 5.66567 13.3123 5.74835 13.2427 5.81799H13.2426Z" fill="black"/>
</svg>
