<svg width="107" height="24" viewBox="0 0 107 24" fill="none" xmlns="http://www.w3.org/2000/svg">
<path d="M9.75 1.5H14.25C14.4489 1.5 14.6397 1.42098 14.7803 1.28033C14.921 1.13968 15 0.948912 15 0.75C15 0.551088 14.921 0.360322 14.7803 0.21967C14.6397 0.0790176 14.4489 0 14.25 0L9.75 0C9.55109 0 9.36032 0.0790176 9.21967 0.21967C9.07902 0.360322 9 0.551088 9 0.75C9 0.948912 9.07902 1.13968 9.21967 1.28033C9.36032 1.42098 9.55109 1.5 9.75 1.5Z" fill="black"/>
<path d="M12 3C10.22 3 8.47991 3.52784 6.99987 4.51677C5.51983 5.50571 4.36628 6.91131 3.68509 8.55585C3.0039 10.2004 2.82567 12.01 3.17294 13.7558C3.5202 15.5016 4.37737 17.1053 5.63604 18.364C6.89472 19.6226 8.49836 20.4798 10.2442 20.8271C11.99 21.1743 13.7996 20.9961 15.4442 20.3149C17.0887 19.6337 18.4943 18.4802 19.4832 17.0001C20.4722 15.5201 21 13.78 21 12C20.9973 9.61388 20.0482 7.32626 18.361 5.63902C16.6737 3.95178 14.3861 3.0027 12 3ZM16.2426 8.81799L12.5304 12.5303C12.4607 12.6 12.378 12.6552 12.2871 12.6929C12.1961 12.7306 12.0985 12.75 12 12.75C11.9015 12.75 11.804 12.7306 11.713 12.6929C11.622 12.6553 11.5393 12.6 11.4697 12.5304C11.4 12.4607 11.3448 12.378 11.3071 12.2871C11.2694 12.1961 11.25 12.0985 11.25 12C11.25 11.9015 11.2694 11.804 11.3071 11.713C11.3448 11.622 11.4 11.5393 11.4696 11.4697L15.182 7.75736C15.2516 7.68771 15.3343 7.63246 15.4253 7.59477C15.5163 7.55708 15.6138 7.53767 15.7123 7.53767C15.8108 7.53767 15.9083 7.55707 15.9993 7.59476C16.0903 7.63244 16.173 7.68769 16.2426 7.75733C16.3123 7.82697 16.3675 7.90965 16.4052 8.00065C16.4429 8.09164 16.4623 8.18916 16.4623 8.28766C16.4623 8.38615 16.4429 8.48368 16.4052 8.57467C16.3675 8.66567 16.3123 8.74835 16.2427 8.81799H16.2426Z" fill="black"/>
<path d="M38.5241 17.1392C40.6023 17.1392 42.1286 15.8963 42.1236 14.206C42.1286 12.9183 41.348 11.9936 39.9957 11.7848V11.7053C41.0597 11.4318 41.7507 10.5966 41.7457 9.45312C41.7507 7.95668 40.5227 6.67898 38.5639 6.67898C36.6946 6.67898 35.1932 7.80753 35.1435 9.46307H36.63C36.6648 8.52841 37.5447 7.96165 38.544 7.96165C39.5831 7.96165 40.2642 8.59304 40.2592 9.53267C40.2642 10.517 39.4737 11.1634 38.3452 11.1634H37.4851V12.4162H38.3452C39.7571 12.4162 40.5724 13.1321 40.5724 14.1562C40.5724 15.1456 39.7124 15.8168 38.5142 15.8168C37.4105 15.8168 36.5504 15.25 36.4908 14.3452H34.9297C34.9943 16.0057 36.4659 17.1392 38.5241 17.1392ZM47.2676 17.169C49.6191 17.169 50.9963 15.25 50.9963 11.9141C50.9963 8.60298 49.5993 6.67898 47.2676 6.67898C44.9309 6.67898 43.5389 8.59801 43.5339 11.9141C43.5339 15.245 44.9111 17.1641 47.2676 17.169ZM47.2676 15.8416C45.8905 15.8416 45.0602 14.4595 45.0602 11.9141C45.0652 9.37855 45.8954 7.98153 47.2676 7.98153C48.6348 7.98153 49.47 9.37855 49.47 11.9141C49.47 14.4595 48.6397 15.8416 47.2676 15.8416ZM56.0442 6.81818V17H57.5059V9.62713H57.6003L60.6032 16.9851H61.8162L64.8191 9.6321H64.9136V17H66.3752V6.81818H64.5109L61.2694 14.733H61.1501L57.9086 6.81818H56.0442ZM68.2094 17H69.6959V9.36364H68.2094V17ZM68.9601 8.18537C69.4722 8.18537 69.8997 7.78764 69.8997 7.30043C69.8997 6.81321 69.4722 6.41051 68.9601 6.41051C68.443 6.41051 68.0204 6.81321 68.0204 7.30043C68.0204 7.78764 68.443 8.18537 68.9601 8.18537ZM72.9022 12.4659C72.9022 11.2479 73.6479 10.5518 74.682 10.5518C75.6913 10.5518 76.3028 11.2131 76.3028 12.3217V17H77.7893V12.1428C77.7893 10.2536 76.7502 9.2642 75.1891 9.2642C74.0407 9.2642 73.29 9.79616 72.937 10.6065H72.8425V9.36364H71.4157V17H72.9022V12.4659ZM84.3402 13.8331C84.3452 15.1307 83.3807 15.7472 82.5455 15.7472C81.6258 15.7472 80.9894 15.081 80.9894 14.0419V9.36364H79.5029V14.2209C79.5029 16.1151 80.5419 17.0994 82.0086 17.0994C83.157 17.0994 83.9375 16.4929 84.2905 15.6776H84.3701V17H85.8317V9.36364H84.3402V13.8331ZM91.1137 9.36364H89.5476V7.53409H88.0611V9.36364H86.9425V10.5568H88.0611V15.0661C88.0562 16.4531 89.1151 17.1243 90.2884 17.0994C90.7607 17.0945 91.0789 17.005 91.2529 16.9403L90.9844 15.7124C90.885 15.7322 90.701 15.777 90.4624 15.777C89.9802 15.777 89.5476 15.6179 89.5476 14.7578V10.5568H91.1137V9.36364ZM95.6872 17.1541C97.3527 17.1541 98.5309 16.3338 98.869 15.0909L97.4621 14.8374C97.1936 15.5582 96.5473 15.9261 95.7021 15.9261C94.4294 15.9261 93.5743 15.1009 93.5345 13.6293H98.9635V13.1023C98.9635 10.343 97.3129 9.2642 95.5828 9.2642C93.455 9.2642 92.053 10.8849 92.053 13.2315C92.053 15.603 93.4351 17.1541 95.6872 17.1541ZM93.5395 12.5156C93.5991 11.4318 94.3846 10.4922 95.5927 10.4922C96.7461 10.4922 97.5018 11.3473 97.5068 12.5156H93.5395ZM106.055 11.228C105.747 10.0398 104.817 9.2642 103.167 9.2642C101.441 9.2642 100.218 10.174 100.218 11.5263C100.218 12.6101 100.875 13.331 102.307 13.6491L103.599 13.9325C104.335 14.0966 104.678 14.4247 104.678 14.902C104.678 15.4936 104.047 15.956 103.072 15.956C102.182 15.956 101.611 15.5732 101.432 14.8224L99.9947 15.0412C100.243 16.3935 101.367 17.1541 103.082 17.1541C104.927 17.1541 106.204 16.1747 106.204 14.7926C106.204 13.7138 105.518 13.0476 104.116 12.7244L102.903 12.446C102.063 12.2472 101.7 11.9638 101.705 11.4467C101.7 10.8601 102.336 10.4425 103.182 10.4425C104.106 10.4425 104.534 10.9545 104.708 11.4666L106.055 11.228Z" fill="black" fill-opacity="0.6"/>
</svg>
